<svg width="128" height="146" viewBox="0 0 128 146" fill="none" xmlns="http://www.w3.org/2000/svg">
<path d="M95.4318 2.37063C94.8418 2.37063 94.3118 2.87062 93.7318 2.94062C93.1518 3.01063 92.5918 2.94063 92.0118 3.08063C91.4318 3.22063 90.8218 3.12063 90.2718 3.32063C89.7218 3.52063 89.0318 3.41062 88.5018 3.66062C87.9718 3.91062 87.8018 4.82063 87.2918 5.12063C86.7818 5.42063 86.3918 5.80063 85.9018 6.14062C85.4118 6.48063 84.8318 6.60062 84.3618 6.98062C83.8918 7.36062 83.2618 7.47062 82.8218 7.88062C82.3818 8.29062 82.2118 8.91062 81.7918 9.33063C81.3718 9.75063 81.1018 10.2506 80.7118 10.7006C80.3218 11.1506 79.5618 11.2506 79.1918 11.7206C78.8218 12.1906 78.8318 12.9006 78.4918 13.3806C78.1518 13.8606 77.5418 14.1306 77.2118 14.6206C76.8818 15.1106 76.3918 15.4806 76.0818 15.9906C75.7718 16.5006 75.7818 17.1706 75.4918 17.6806C75.2018 18.1906 74.5718 18.5006 74.2918 19.0206C74.0118 19.5406 73.8018 20.0906 73.5418 20.6206C73.2818 21.1506 72.8718 21.6006 72.6118 22.1306C72.3518 22.6606 72.5518 23.3906 72.3118 23.9306C72.0718 24.4706 71.8918 25.0106 71.6618 25.5606C71.4318 26.1106 71.4418 26.7206 71.2218 27.2706C71.0018 27.8206 70.3118 28.1706 70.1118 28.7306C69.9118 29.2906 69.7118 29.8306 69.5218 30.3906C69.3318 30.9506 69.3118 31.5506 69.1318 32.1106C68.9518 32.6706 68.9818 33.2906 68.8118 33.8506C68.6418 34.4106 68.3718 35.0606 68.2018 35.6306C68.0418 35.0606 67.6018 34.4606 67.4318 33.9006C67.2618 33.3406 66.9218 32.8406 66.7418 32.2806C66.5618 31.7206 66.8918 31.0006 66.7018 30.4506C66.5118 29.9006 66.2918 29.3506 66.0918 28.8006C65.8918 28.2506 65.5718 27.7406 65.3618 27.2006C65.1518 26.6606 64.6718 26.2106 64.4518 25.6806C64.2318 25.1506 63.9618 24.6206 63.7218 24.0906C63.4818 23.5606 63.8418 22.7506 63.5918 22.2206C63.3418 21.6906 63.0518 21.1706 62.7918 20.6506C62.5318 20.1306 62.4618 19.4806 62.1918 18.9706C61.9218 18.4606 60.9218 18.3206 60.6418 17.8206C60.3618 17.3206 60.5818 16.4906 60.2818 15.9906C59.9818 15.4906 59.7218 14.9406 59.4018 14.4606C59.0818 13.9806 58.1618 13.8906 57.8218 13.4206C57.4818 12.9506 57.6318 12.0906 57.2718 11.6406C56.9118 11.1906 56.5818 10.6606 56.2018 10.2306C55.8218 9.80063 55.1618 9.56062 54.7618 9.15062C54.3618 8.74062 53.7918 8.46062 53.3718 8.07062C52.9518 7.68062 52.6518 7.10063 52.2118 6.74062C51.7718 6.38062 51.2018 6.12063 50.7318 5.79062C50.2618 5.46062 49.9118 4.87062 49.4118 4.58062C48.9118 4.29062 48.3118 4.11063 47.7918 3.87063C47.2718 3.63063 46.7618 3.24063 46.2118 3.04063C45.6618 2.84063 44.9118 3.31062 44.3518 3.18062C43.7918 3.05062 43.3418 2.14063 42.7618 2.07063C42.1818 2.00063 41.5518 2.05063 40.9618 2.05063C40.3718 2.05063 39.7218 1.96062 39.1418 2.02062C38.5618 2.08062 38.0918 2.90063 37.5118 3.04063C36.9318 3.18063 36.3518 3.20062 35.7918 3.40062C35.2318 3.60063 34.5418 3.46062 34.0018 3.72062C33.4618 3.98062 33.3218 4.92062 32.8118 5.23062C32.3018 5.54062 31.3418 5.11063 30.8618 5.45063C30.3818 5.79063 30.0918 6.40062 29.6318 6.78062C29.1718 7.16062 29.0118 7.84062 28.5818 8.24062C28.1518 8.64062 27.2318 8.54062 26.8218 8.97062C26.4118 9.40062 25.9718 9.81063 25.5818 10.2606C25.1918 10.7106 25.0018 11.3106 24.6318 11.7806C24.2618 12.2506 24.3518 13.0206 24.0018 13.5106C23.6518 14.0006 22.8618 14.1406 22.5318 14.6406C22.2018 15.1406 21.8118 15.5806 21.5018 16.0906C21.1918 16.6006 21.0518 17.1906 20.7518 17.7106C20.4518 18.2306 20.4818 18.8906 20.2018 19.4206C19.9218 19.9506 19.4818 20.3606 19.2218 20.8906C18.9618 21.4206 18.8518 22.0106 18.6018 22.5506C18.3518 23.0906 18.1918 23.6406 17.9518 24.1906C17.7118 24.7406 17.6318 25.3206 17.4018 25.8706C17.1718 26.4206 16.7818 26.8806 16.5618 27.4306C16.3418 27.9806 15.6718 28.3506 15.4718 28.9106C15.2718 29.4706 15.7218 30.2406 15.5318 30.8006C15.3418 31.3606 14.6418 31.7406 14.4618 32.3006C14.2818 32.8606 14.5218 33.5506 14.3518 34.1106C14.1818 34.6706 13.8418 35.1806 13.6718 35.7506C13.5018 36.3206 13.8218 37.0006 13.6718 37.5706C13.5218 38.1406 12.9218 38.5806 12.7818 39.1606C12.6418 39.7406 12.4118 40.2806 12.2818 40.8606C12.1518 41.4406 11.6418 41.9206 11.5118 42.5006C11.3818 43.0806 11.5818 43.7206 11.4618 44.3006C11.3418 44.8806 11.6518 45.5306 11.5418 46.1106C11.4318 46.6906 10.7718 47.1706 10.6718 47.7506C10.5718 48.3306 11.0618 49.0006 10.9718 49.5806C10.8818 50.1606 10.0518 50.6306 9.96181 51.2106C9.87181 51.7906 9.84181 52.3806 9.76181 52.9706C9.68181 53.5606 10.2318 54.2106 10.1618 54.8006C10.0918 55.3906 10.0818 55.9706 10.0218 56.5606C9.96181 57.1506 9.73181 57.7106 9.68181 58.3006C9.63181 58.8906 9.90181 59.5006 9.85181 60.0906C9.80181 60.6806 9.62181 61.2406 9.58181 61.8306C9.54181 62.4206 9.54181 63.0006 9.51181 63.5906C9.48181 64.1806 8.82181 64.7306 8.79181 65.3206C8.76181 65.9106 9.10181 66.5106 9.08181 67.1006C9.06181 67.6906 8.99181 68.2706 8.98181 68.8606C8.97181 69.4506 9.08181 70.0406 9.07181 70.6306C9.06181 71.2206 8.48181 71.8106 8.48181 72.4006C8.48181 72.9906 8.78181 73.5806 8.78181 74.1706C8.78181 74.7606 9.38181 75.3406 9.39181 75.9206C9.40181 76.5006 9.07181 77.1006 9.09181 77.6906C9.11181 78.2806 9.05181 78.8706 9.09181 79.4606C9.13181 80.0506 9.06181 80.6406 9.09181 81.2306C9.12181 81.8206 8.95181 82.4206 8.99181 83.0106C9.03181 83.6006 9.48181 84.1606 9.53181 84.7406C9.58181 85.3206 9.02181 85.9706 9.08181 86.5506C9.14181 87.1306 10.0018 87.6506 10.0618 88.2306C10.1218 88.8106 10.0818 89.4106 10.1518 90.0006C10.2218 90.5906 9.77181 91.2406 9.84181 91.8206C9.91181 92.4006 10.4718 92.9306 10.5518 93.5106C10.6318 94.0906 10.6518 94.6906 10.7418 95.2706C10.8318 95.8506 11.2318 96.3806 11.3318 96.9606C11.4318 97.5406 10.7418 98.2706 10.8518 98.8406C10.9618 99.4106 11.3918 99.9406 11.5118 100.521C11.6318 101.101 12.1718 101.591 12.3018 102.161C12.4318 102.731 12.0718 103.421 12.2018 103.991C12.3318 104.561 12.6918 105.091 12.8318 105.661C12.9718 106.231 13.1718 106.791 13.3218 107.361C13.4718 107.931 13.4618 108.541 13.6218 109.111C13.7818 109.681 13.6118 110.351 13.7818 110.911C13.9518 111.471 14.4118 111.951 14.5918 112.511C14.7718 113.071 14.7418 113.711 14.9318 114.261C15.1218 114.811 15.3218 115.381 15.5218 115.931C15.7218 116.481 16.0218 117.011 16.2318 117.551C16.4418 118.091 16.5818 118.691 16.8018 119.231C17.0218 119.771 17.7318 120.121 17.9618 120.661C18.1918 121.201 17.8218 122.021 18.0618 122.551C18.3018 123.081 18.8518 123.491 19.1118 124.011C19.3718 124.531 20.0318 124.861 20.3118 125.381C20.5918 125.901 20.3518 126.711 20.6318 127.221C20.9118 127.731 21.5818 128.041 21.8918 128.531C22.2018 129.021 22.0318 129.851 22.3518 130.341C22.6718 130.831 23.7718 130.801 24.1118 131.271C24.4518 131.741 24.4018 132.521 24.7618 132.981C25.1218 133.441 25.3418 134.051 25.7118 134.491C26.0818 134.931 26.4318 135.461 26.8318 135.881C27.2318 136.301 27.7318 136.681 28.1618 137.081C28.5918 137.481 29.4818 137.371 29.9318 137.741C30.3818 138.111 30.7318 138.621 31.2018 138.951C31.6718 139.281 32.0418 139.831 32.5418 140.121C33.0418 140.411 33.4318 141.011 33.9618 141.261C34.4918 141.511 35.3618 140.961 35.9118 141.161C36.4618 141.361 36.8318 142.191 37.4018 142.321C37.9718 142.451 38.6318 142.161 39.2118 142.231C39.7918 142.301 40.3618 142.511 40.9518 142.511C41.5418 142.511 42.1218 142.451 42.7018 142.381C43.2818 142.311 43.7818 141.881 44.3518 141.751C44.9218 141.621 45.4418 141.461 46.0018 141.261C46.5618 141.061 47.2218 141.201 47.7518 140.951C48.2818 140.701 48.5418 139.991 49.0518 139.691C49.5618 139.391 50.4818 139.771 50.9618 139.431C51.4418 139.091 51.8718 138.681 52.3418 138.301C52.8118 137.921 53.0918 137.371 53.5218 136.971C53.9518 136.571 53.9718 135.791 54.3818 135.361C54.7918 134.931 55.6018 134.921 55.9918 134.471C56.3818 134.021 56.5118 133.401 56.8818 132.931C57.2518 132.461 57.5718 132.011 57.9118 131.531C58.2518 131.051 58.5918 130.601 58.9218 130.101C59.2518 129.601 59.6818 129.221 59.9918 128.711C60.3018 128.201 60.9418 127.921 61.2318 127.401C61.5218 126.881 61.6318 126.291 61.9118 125.761C62.1918 125.231 62.3418 124.671 62.6118 124.141C62.8818 123.611 62.7818 122.941 63.0418 122.401C63.3018 121.861 63.6018 121.381 63.8418 120.841C64.0818 120.301 64.3818 119.811 64.6018 119.261C64.8218 118.711 64.8218 118.101 65.0318 117.551C65.2418 117.001 66.0118 116.681 66.2218 116.121C66.4318 115.561 66.5818 115.011 66.7718 114.451C66.9618 113.891 67.3118 113.401 67.4918 112.841C67.6718 112.281 67.7218 111.681 67.8918 111.121C68.0618 110.561 68.0018 110.351 68.1618 109.781C68.3218 110.351 68.0318 110.631 68.2018 111.181C68.3718 111.731 69.2918 112.071 69.4718 112.621C69.6518 113.171 69.9318 113.701 70.1218 114.251C70.3118 114.801 70.0918 115.501 70.2918 116.051C70.4918 116.601 70.6918 117.151 70.9018 117.691C71.1118 118.231 71.1118 118.881 71.3318 119.411C71.5518 119.941 72.3618 120.251 72.5918 120.781C72.8218 121.311 72.3818 122.171 72.6318 122.691C72.8818 123.211 73.3718 123.651 73.6318 124.161C73.8918 124.671 73.8718 125.371 74.1418 125.881C74.4118 126.391 74.9118 126.811 75.2018 127.311C75.4918 127.811 75.9618 128.231 76.2618 128.721C76.5618 129.211 77.3118 129.441 77.6318 129.921C77.9518 130.401 77.5318 131.421 77.8718 131.891C78.2118 132.361 79.3318 132.271 79.6818 132.721C80.0318 133.171 79.9118 134.051 80.2918 134.481C80.6718 134.911 81.1518 135.301 81.5518 135.721C81.9518 136.141 82.2018 136.761 82.6218 137.151C83.0418 137.541 83.8418 137.561 84.2818 137.921C84.7218 138.281 85.3418 138.441 85.8118 138.771C86.2818 139.101 86.3918 140.041 86.8918 140.331C87.3918 140.621 88.2018 140.371 88.7218 140.621C89.2418 140.871 89.7618 141.101 90.3118 141.291C90.8618 141.481 91.3418 141.911 91.9018 142.041C92.4618 142.171 93.0618 142.181 93.6418 142.251C94.2218 142.321 94.7918 142.901 95.3818 142.901C95.9718 142.901 96.5018 141.921 97.0818 141.851C97.6618 141.781 98.3518 142.381 98.9318 142.241C99.5118 142.101 99.9118 141.451 100.472 141.251C101.032 141.051 101.622 141.021 102.162 140.761C102.702 140.501 103.322 140.441 103.832 140.141C104.342 139.841 104.772 139.431 105.252 139.081C105.732 138.731 106.282 138.501 106.752 138.121C107.222 137.741 107.552 137.261 107.992 136.851C108.432 136.441 108.722 135.931 109.132 135.501C109.542 135.071 110.362 135.031 110.752 134.581C111.142 134.131 111.352 133.541 111.722 133.071C112.092 132.601 112.312 132.051 112.662 131.561C113.012 131.071 113.602 130.781 113.932 130.281C114.262 129.781 114.452 129.211 114.762 128.711C115.072 128.211 115.402 127.721 115.702 127.211C116.002 126.701 116.182 126.131 116.462 125.611C116.742 125.091 116.802 124.471 117.062 123.931C117.322 123.391 117.732 122.951 117.982 122.421C118.232 121.891 118.532 121.381 118.762 120.831C118.992 120.281 119.262 119.771 119.492 119.221C119.722 118.671 119.802 118.081 120.012 117.521C120.222 116.961 119.922 116.241 120.122 115.681C120.322 115.121 120.952 114.731 121.142 114.171C121.332 113.611 121.262 112.981 121.442 112.411C121.622 111.841 121.632 111.251 121.802 110.681C121.972 110.111 122.392 109.641 122.552 109.071C122.712 108.501 122.712 107.901 122.862 107.331C123.012 106.761 123.412 106.261 123.552 105.691C123.692 105.121 124.092 104.611 124.222 104.031C124.352 103.451 124.602 102.911 124.722 102.331C124.842 101.751 124.642 101.111 124.762 100.531C124.882 99.9506 124.772 99.3406 124.882 98.7606C124.992 98.1806 125.272 97.6406 125.372 97.0506C125.472 96.4606 125.692 95.9206 125.782 95.3306C125.872 94.7406 125.962 94.1706 126.052 93.5906C126.142 93.0106 126.132 92.4106 126.202 91.8306C126.272 91.2506 126.442 90.6806 126.512 90.0906C126.582 89.5006 126.812 88.9406 126.872 88.3506C126.932 87.7606 126.812 87.1606 126.872 86.5706C126.932 85.9806 127.092 85.4106 127.142 84.8206C127.192 84.2306 126.942 83.6306 126.982 83.0406C127.022 82.4506 127.542 81.9006 127.572 81.3106C127.602 80.7206 127.072 80.1006 127.102 79.5106C127.132 78.9206 127.122 78.3306 127.142 77.7406C127.162 77.1506 127.022 76.5606 127.032 75.9706C127.042 75.3806 127.172 74.8006 127.182 74.2006C127.192 73.6006 127.032 73.0206 127.032 72.4306C127.032 71.8406 127.432 71.2506 127.432 70.6606C127.432 70.0706 127.552 69.4806 127.542 68.8906C127.532 68.3006 127.582 67.7106 127.562 67.1206C127.542 66.5306 126.782 65.9706 126.762 65.3906C126.742 64.8106 126.832 64.2106 126.802 63.6306C126.772 63.0506 127.062 62.4306 127.022 61.8506C126.982 61.2706 127.392 60.6406 127.342 60.0506C127.292 59.4606 127.212 58.8706 127.152 58.2906C127.092 57.7106 126.312 57.1906 126.252 56.6006C126.192 56.0106 126.692 55.3606 126.622 54.7806C126.552 54.2006 126.152 53.6506 126.072 53.0606C125.992 52.4706 126.452 51.8106 126.372 51.2306C126.292 50.6506 125.632 50.1406 125.542 49.5706C125.452 49.0006 125.832 48.3206 125.732 47.7506C125.632 47.1806 125.382 46.6106 125.282 46.0306C125.182 45.4506 124.702 44.9406 124.582 44.3606C124.462 43.7806 124.542 43.1606 124.422 42.5906C124.302 42.0206 123.772 41.5306 123.642 40.9606C123.512 40.3906 123.932 39.6806 123.792 39.1106C123.652 38.5406 122.982 38.1006 122.832 37.5306C122.682 36.9606 122.912 36.2906 122.752 35.7206C122.592 35.1506 122.132 34.6706 121.972 34.1106C121.812 33.5506 121.632 32.9806 121.452 32.4306C121.272 31.8806 121.052 31.3206 120.862 30.7706C120.672 30.2206 120.432 29.6806 120.232 29.1306C120.032 28.5806 119.692 28.0806 119.482 27.5406C119.272 27.0006 119.652 26.2106 119.432 25.6706C119.212 25.1306 119.022 24.5606 118.782 24.0206C118.542 23.4806 118.042 23.0506 117.802 22.5206C117.562 21.9906 116.962 21.6206 116.702 21.1006C116.442 20.5806 116.872 19.6806 116.602 19.1706C116.332 18.6606 115.762 18.2806 115.472 17.7706C115.182 17.2606 115.202 16.5506 114.892 16.0506C114.582 15.5506 113.522 15.5206 113.202 15.0406C112.882 14.5606 113.182 13.6206 112.852 13.1506C112.522 12.6806 111.642 12.5706 111.292 12.1206C110.942 11.6706 110.802 11.0006 110.422 10.5606C110.042 10.1206 109.312 9.98062 108.912 9.57062C108.512 9.16062 108.212 8.62062 107.792 8.23062C107.372 7.84062 107.332 6.96062 106.882 6.59062C106.432 6.22062 105.882 5.91062 105.412 5.58062C104.942 5.25062 104.342 5.02062 103.842 4.73062C103.342 4.44062 102.802 4.14062 102.282 3.90062C101.762 3.66062 101.272 3.19063 100.722 2.99063C100.172 2.79063 99.5718 2.55062 99.0118 2.42062C98.4518 2.29062 97.7118 3.00063 97.1318 2.93062C96.5518 2.86062 96.0118 2.40062 95.4218 2.40062L95.4318 2.37063Z" fill="black"/>
<path d="M66.3217 72.7806C66.3217 73.3706 66.8317 73.9606 66.8217 74.5406C66.8117 75.1206 66.4717 75.7106 66.4617 76.3006C66.4517 76.8906 66.9917 77.4906 66.9717 78.0806C66.9517 78.6706 66.5617 79.2406 66.5317 79.8306C66.5017 80.4206 67.0617 81.0406 67.0317 81.6306C67.0017 82.2206 66.9317 82.8106 66.8817 83.3906C66.8317 83.9706 65.9117 84.5006 65.8717 85.0806C65.8317 85.6606 66.0317 86.2706 65.9817 86.8606C65.9317 87.4506 65.6217 88.0106 65.5617 88.5906C65.5017 89.1706 66.0617 89.8306 65.9917 90.4206C65.9217 91.0106 65.2017 91.5106 65.1217 92.0906C65.0417 92.6706 65.8917 93.3906 65.8017 93.9706C65.7117 94.5506 65.5717 95.1406 65.4817 95.7206C65.3917 96.3006 64.6017 96.7706 64.5017 97.3506C64.4017 97.9306 64.5417 98.5506 64.4317 99.1306C64.3217 99.7106 64.5817 100.361 64.4617 100.941C64.3417 101.521 63.7617 102.001 63.6417 102.571C63.5217 103.141 63.4417 103.731 63.3117 104.301C63.1817 104.871 62.6917 105.361 62.5517 105.931C62.4117 106.501 62.9517 107.251 62.8017 107.821C62.6517 108.391 62.6617 109.011 62.5017 109.571C62.3417 110.131 61.5717 110.531 61.4017 111.091C61.2317 111.651 61.1117 112.231 60.9317 112.791C60.7517 113.351 60.7017 113.951 60.5117 114.511C60.3217 115.071 59.8617 115.531 59.6617 116.081C59.4617 116.631 59.9417 117.451 59.7317 117.991C59.5217 118.531 58.7317 118.871 58.5117 119.411C58.2917 119.951 58.5417 120.711 58.3117 121.241C58.0817 121.771 57.2417 122.061 57.0017 122.591C56.7617 123.121 56.4717 123.641 56.2117 124.161C55.9517 124.681 55.6417 125.191 55.3717 125.701C55.1017 126.211 54.6717 126.651 54.3817 127.161C54.0917 127.671 54.2617 128.461 53.9617 128.951C53.6617 129.441 53.2817 129.921 52.9517 130.401C52.6217 130.881 52.3817 131.451 52.0417 131.921C51.7017 132.391 51.5017 133.011 51.1517 133.461C50.8017 133.911 50.3917 134.391 50.0217 134.831C49.6517 135.271 49.0117 135.531 48.6217 135.951C48.2317 136.371 47.7517 136.761 47.3317 137.151C46.9117 137.541 46.2017 137.641 45.7517 138.001C45.3017 138.361 44.9117 138.811 44.4417 139.141C43.9717 139.471 43.4617 139.751 42.9617 140.051C42.4617 140.351 42.1017 140.931 41.5817 141.171C41.0617 141.411 40.4617 141.521 39.9117 141.711C39.3617 141.901 38.8717 142.361 38.3117 142.501C37.7517 142.641 37.0717 142.141 36.4917 142.211C35.9117 142.281 35.3817 143.141 34.7917 143.141C34.2017 143.141 33.5517 143.221 32.9717 143.141C32.3917 143.061 31.8817 142.431 31.3017 142.291C30.7217 142.151 30.0717 142.281 29.5117 142.081C28.9517 141.881 28.5917 141.251 28.0517 140.991C27.5117 140.731 26.8617 140.751 26.3517 140.441C25.8417 140.131 25.3317 139.851 24.8417 139.501C24.3517 139.151 23.9817 138.691 23.5217 138.311C23.0617 137.931 22.7417 137.431 22.3117 137.031C21.8817 136.631 21.5717 136.141 21.1617 135.701C20.7517 135.261 20.3017 134.921 19.9117 134.471C19.5217 134.021 18.9817 133.731 18.6117 133.261C18.2417 132.791 18.2617 132.071 17.9217 131.591C17.5817 131.111 17.1317 130.731 16.8017 130.241C16.4717 129.751 16.3917 129.131 16.0817 128.631C15.7717 128.131 15.2017 127.801 14.9117 127.291C14.6217 126.781 14.4817 126.201 14.2017 125.681C13.9217 125.161 13.7717 124.601 13.5017 124.071C13.2317 123.541 12.9017 123.071 12.6517 122.531C12.4017 121.991 12.2417 121.441 12.0017 120.901C11.7617 120.361 11.1417 120.001 10.9117 119.451C10.6817 118.901 10.3317 118.421 10.1217 117.861C9.91174 117.301 10.0717 116.631 9.87174 116.071C9.67174 115.511 9.20174 115.061 9.01174 114.501C8.82174 113.941 8.61174 113.401 8.43174 112.831C8.25174 112.261 8.12174 111.701 7.95174 111.131C7.78174 110.561 8.02174 109.891 7.86174 109.321C7.70174 108.751 7.54174 108.201 7.39174 107.631C7.24174 107.061 7.09174 106.501 6.95174 105.931C6.81174 105.361 6.39174 104.861 6.26174 104.281C6.13174 103.701 6.26174 103.081 6.14174 102.501C6.02174 101.921 6.04174 101.331 5.93174 100.751C5.82174 100.171 5.68174 99.6106 5.58174 99.0306C5.48174 98.4506 4.99174 97.9506 4.89174 97.3606C4.79174 96.7706 4.89174 96.1706 4.80174 95.5906C4.71174 95.0106 3.87174 94.5406 3.78174 93.9606C3.69174 93.3806 3.96174 92.7506 3.88174 92.1606C3.80174 91.5706 3.48174 91.0206 3.42174 90.4406C3.36174 89.8606 3.39174 89.2606 3.33174 88.6706C3.27174 88.0806 3.61174 87.4606 3.55174 86.8706C3.49174 86.2806 2.84174 85.7506 2.79174 85.1606C2.74174 84.5706 3.50174 83.9306 3.46174 83.3406C3.42174 82.7506 2.72174 82.2106 2.69174 81.6206C2.66174 81.0306 2.94174 80.4306 2.92174 79.8406C2.90174 79.2506 3.03174 78.6606 3.01174 78.0706C2.99174 77.4806 2.62174 76.9006 2.61174 76.3106C2.60174 75.7206 2.69174 75.1306 2.68174 74.5406C2.67174 73.9506 2.72174 73.3606 2.72174 72.7706C2.72174 72.1806 2.83174 71.5906 2.84174 71.0106C2.85174 70.4306 2.95174 69.8306 2.97174 69.2506C2.99174 68.6706 3.19174 68.0806 3.21174 67.4906C3.23174 66.9006 2.68174 66.2906 2.71174 65.7006C2.74174 65.1106 2.80174 64.5206 2.83174 63.9406C2.86174 63.3606 2.81174 62.7506 2.85174 62.1706C2.89174 61.5906 3.57174 61.0406 3.62174 60.4606C3.67174 59.8806 3.72174 59.2906 3.77174 58.7106C3.82174 58.1306 3.93174 57.5406 4.00174 56.9606C4.07174 56.3806 3.41174 55.7106 3.48174 55.1206C3.55174 54.5306 3.48174 53.9206 3.56174 53.3406C3.64174 52.7606 4.53174 52.2806 4.61174 51.7006C4.69174 51.1206 3.95174 50.4006 4.04174 49.8206C4.13174 49.2406 5.12174 48.8006 5.22174 48.2206C5.32174 47.6406 5.44174 47.0606 5.55174 46.4906C5.66174 45.9206 5.83174 45.3506 5.95174 44.7706C6.07174 44.1906 6.17174 43.6206 6.29174 43.0406C6.41174 42.4606 6.26174 41.8306 6.39174 41.2606C6.52174 40.6906 6.79174 40.1406 6.93174 39.5806C7.07174 39.0206 6.91174 38.3606 7.06174 37.7906C7.21174 37.2206 7.79174 36.7706 7.94174 36.2106C8.09174 35.6506 7.70174 34.9106 7.86174 34.3506C8.02174 33.7906 8.81174 33.4106 8.99174 32.8606C9.17174 32.3106 8.57174 31.4806 8.75174 30.9306C8.93174 30.3806 9.91174 30.0906 10.1117 29.5406C10.3117 28.9906 9.62174 28.1006 9.83174 27.5506C10.0417 27.0006 11.1417 26.8006 11.3617 26.2606C11.5817 25.7206 11.4317 25.0106 11.6617 24.4806C11.8917 23.9506 12.1817 23.4206 12.4217 22.8906C12.6617 22.3606 12.5317 21.6306 12.7917 21.1106C13.0517 20.5906 13.9517 20.3806 14.2317 19.8706C14.5117 19.3606 14.7617 18.8206 15.0517 18.3206C15.3417 17.8206 15.2217 17.0506 15.5317 16.5606C15.8417 16.0706 16.6217 15.8606 16.9417 15.3806C17.2617 14.9006 17.0517 14.0206 17.3917 13.5506C17.7317 13.0806 18.3217 12.7606 18.6817 12.3106C19.0417 11.8606 19.0317 11.0506 19.4117 10.6106C19.7917 10.1706 20.5217 9.9906 20.9217 9.5706C21.3217 9.1506 22.0617 9.0506 22.4817 8.6506C22.9017 8.2506 23.3217 7.8506 23.7717 7.4806C24.2217 7.1106 24.2817 6.1906 24.7517 5.8606C25.2217 5.5306 26.1917 5.9206 26.6917 5.6206C27.1917 5.3206 27.6317 4.9506 28.1517 4.7006C28.6717 4.4506 28.9317 3.4906 29.4817 3.3006C30.0317 3.1106 30.7017 3.1506 31.2617 3.0106C31.8217 2.8706 32.4317 2.7506 33.0117 2.6806C33.5917 2.6106 34.2017 2.3606 34.7917 2.3606C35.3817 2.3606 35.9917 2.6006 36.5817 2.6606C37.1717 2.7206 37.6317 3.4206 38.2017 3.5606C38.7717 3.7006 39.5717 3.0806 40.1317 3.2806C40.6917 3.4806 40.9917 4.3006 41.5217 4.5506C42.0517 4.8006 42.4017 5.3106 42.9217 5.6106C43.4417 5.9106 44.0417 5.9706 44.5317 6.3206C45.0217 6.6706 45.6617 6.7506 46.1217 7.1306C46.5817 7.5106 46.6317 8.3006 47.0717 8.7106C47.5117 9.1206 48.3817 9.0406 48.7917 9.4706C49.2017 9.9006 49.3617 10.5306 49.7517 10.9806C50.1417 11.4306 50.3717 11.9706 50.7417 12.4406C51.1117 12.9106 51.7017 13.1706 52.0517 13.6606C52.4017 14.1506 52.4517 14.7906 52.7817 15.2906C53.1117 15.7906 53.4217 16.2606 53.7317 16.7606C54.0417 17.2606 54.8517 17.4506 55.1517 17.9706C55.4517 18.4906 55.5017 19.1206 55.7817 19.6406C56.0617 20.1606 56.0317 20.8206 56.3017 21.3506C56.5717 21.8806 57.1717 22.2306 57.4217 22.7706C57.6717 23.3106 57.8417 23.8706 58.0817 24.4106C58.3217 24.9506 58.5917 25.4706 58.8217 26.0206C59.0517 26.5706 59.2917 27.1006 59.5117 27.6506C59.7317 28.2006 60.1617 28.6606 60.3617 29.2206C60.5617 29.7806 60.7617 30.3306 60.9617 30.8906C61.1617 31.4506 61.2017 32.0506 61.3817 32.6206C61.5617 33.1906 61.1917 33.9106 61.3617 34.4706C61.5317 35.0306 62.3017 35.4206 62.4617 35.9906C62.6217 36.5606 62.1817 37.2806 62.3317 37.8606C62.4817 38.4406 62.8817 38.9306 63.0317 39.5006C63.1817 40.0706 63.2817 40.6506 63.4217 41.2206C63.5617 41.7906 63.7417 42.3506 63.8617 42.9306C63.9817 43.5106 63.7917 44.1406 63.9117 44.7206C64.0317 45.3006 64.0817 45.8806 64.1917 46.4606C64.3017 47.0406 64.8617 47.5306 64.9617 48.1106C65.0617 48.6906 65.2617 49.2506 65.3617 49.8306C65.4617 50.4106 65.3617 51.0206 65.4517 51.6006C65.5417 52.1806 65.9417 52.7206 66.0217 53.3106C66.1017 53.9006 65.7817 54.5306 65.8517 55.1106C65.9217 55.6906 66.1617 56.2606 66.2217 56.8506C66.2817 57.4406 66.6117 58.0006 66.6717 58.5906C66.7317 59.1806 66.2617 59.8106 66.3017 60.4006C66.3417 60.9906 66.5017 61.5606 66.5417 62.1506C66.5817 62.7406 66.3417 63.3406 66.3717 63.9306C66.4017 64.5206 66.8617 65.0806 66.8917 65.6706C66.9217 66.2606 66.7917 66.8506 66.8117 67.4506C66.8317 68.0506 66.4017 68.6406 66.4217 69.2306C66.4417 69.8206 66.8917 70.4006 66.9017 70.9906C66.9117 71.5806 66.3617 72.1706 66.3617 72.7606L66.3217 72.7806Z" fill="white"/>
<path d="M66.3217 72.7806C66.3217 73.3706 66.8317 73.9606 66.8217 74.5406C66.8117 75.1206 66.4717 75.7106 66.4617 76.3006C66.4517 76.8906 66.9917 77.4906 66.9717 78.0806C66.9517 78.6706 66.5617 79.2406 66.5317 79.8306C66.5017 80.4206 67.0617 81.0406 67.0317 81.6306C67.0017 82.2206 66.9317 82.8106 66.8817 83.3906C66.8317 83.9706 65.9117 84.5006 65.8717 85.0806C65.8317 85.6606 66.0317 86.2706 65.9817 86.8606C65.9317 87.4506 65.6217 88.0106 65.5617 88.5906C65.5017 89.1706 66.0617 89.8306 65.9917 90.4206C65.9217 91.0106 65.2017 91.5106 65.1217 92.0906C65.0417 92.6706 65.8917 93.3906 65.8017 93.9706C65.7117 94.5506 65.5717 95.1406 65.4817 95.7206C65.3917 96.3006 64.6017 96.7706 64.5017 97.3506C64.4017 97.9306 64.5417 98.5506 64.4317 99.1306C64.3217 99.7106 64.5817 100.361 64.4617 100.941C64.3417 101.521 63.7617 102.001 63.6417 102.571C63.5217 103.141 63.4417 103.731 63.3117 104.301C63.1817 104.871 62.6917 105.361 62.5517 105.931C62.4117 106.501 62.9517 107.251 62.8017 107.821C62.6517 108.391 62.6617 109.011 62.5017 109.571C62.3417 110.131 61.5717 110.531 61.4017 111.091C61.2317 111.651 61.1117 112.231 60.9317 112.791C60.7517 113.351 60.7017 113.951 60.5117 114.511C60.3217 115.071 59.8617 115.531 59.6617 116.081C59.4617 116.631 59.9417 117.451 59.7317 117.991C59.5217 118.531 58.7317 118.871 58.5117 119.411C58.2917 119.951 58.5417 120.711 58.3117 121.241C58.0817 121.771 57.2417 122.061 57.0017 122.591C56.7617 123.121 56.4717 123.641 56.2117 124.161C55.9517 124.681 55.6417 125.191 55.3717 125.701C55.1017 126.211 54.6717 126.651 54.3817 127.161C54.0917 127.671 54.2617 128.461 53.9617 128.951C53.6617 129.441 53.2817 129.921 52.9517 130.401C52.6217 130.881 52.3817 131.451 52.0417 131.921C51.7017 132.391 51.5017 133.011 51.1517 133.461C50.8017 133.911 50.3917 134.391 50.0217 134.831C49.6517 135.271 49.0117 135.531 48.6217 135.951C48.2317 136.371 47.7517 136.761 47.3317 137.151C46.9117 137.541 46.2017 137.641 45.7517 138.001C45.3017 138.361 44.9117 138.811 44.4417 139.141C43.9717 139.471 43.4617 139.751 42.9617 140.051C42.4617 140.351 42.1017 140.931 41.5817 141.171C41.0617 141.411 40.4617 141.521 39.9117 141.711C39.3617 141.901 38.8717 142.361 38.3117 142.501C37.7517 142.641 37.0717 142.141 36.4917 142.211C35.9117 142.281 35.3817 143.141 34.7917 143.141C34.2017 143.141 33.5517 143.221 32.9717 143.141C32.3917 143.061 31.8817 142.431 31.3017 142.291C30.7217 142.151 30.0717 142.281 29.5117 142.081C28.9517 141.881 28.5917 141.251 28.0517 140.991C27.5117 140.731 26.8617 140.751 26.3517 140.441C25.8417 140.131 25.3317 139.851 24.8417 139.501C24.3517 139.151 23.9817 138.691 23.5217 138.311C23.0617 137.931 22.7417 137.431 22.3117 137.031C21.8817 136.631 21.5717 136.141 21.1617 135.701C20.7517 135.261 20.3017 134.921 19.9117 134.471C19.5217 134.021 18.9817 133.731 18.6117 133.261C18.2417 132.791 18.2617 132.071 17.9217 131.591C17.5817 131.111 17.1317 130.731 16.8017 130.241C16.4717 129.751 16.3917 129.131 16.0817 128.631C15.7717 128.131 15.2017 127.801 14.9117 127.291C14.6217 126.781 14.4817 126.201 14.2017 125.681C13.9217 125.161 13.7717 124.601 13.5017 124.071C13.2317 123.541 12.9017 123.071 12.6517 122.531C12.4017 121.991 12.2417 121.441 12.0017 120.901C11.7617 120.361 11.1417 120.001 10.9117 119.451C10.6817 118.901 10.3317 118.421 10.1217 117.861C9.91174 117.301 10.0717 116.631 9.87174 116.071C9.67174 115.511 9.20174 115.061 9.01174 114.501C8.82174 113.941 8.61174 113.401 8.43174 112.831C8.25174 112.261 8.12174 111.701 7.95174 111.131C7.78174 110.561 8.02174 109.891 7.86174 109.321C7.70174 108.751 7.54174 108.201 7.39174 107.631C7.24174 107.061 7.09174 106.501 6.95174 105.931C6.81174 105.361 6.39174 104.861 6.26174 104.281C6.13174 103.701 6.26174 103.081 6.14174 102.501C6.02174 101.921 6.04174 101.331 5.93174 100.751C5.82174 100.171 5.68174 99.6106 5.58174 99.0306C5.48174 98.4506 4.99174 97.9506 4.89174 97.3606C4.79174 96.7706 4.89174 96.1706 4.80174 95.5906C4.71174 95.0106 3.87174 94.5406 3.78174 93.9606C3.69174 93.3806 3.96174 92.7506 3.88174 92.1606C3.80174 91.5706 3.48174 91.0206 3.42174 90.4406C3.36174 89.8606 3.39174 89.2606 3.33174 88.6706C3.27174 88.0806 3.61174 87.4606 3.55174 86.8706C3.49174 86.2806 2.84174 85.7506 2.79174 85.1606C2.74174 84.5706 3.50174 83.9306 3.46174 83.3406C3.42174 82.7506 2.72174 82.2106 2.69174 81.6206C2.66174 81.0306 2.94174 80.4306 2.92174 79.8406C2.90174 79.2506 3.03174 78.6606 3.01174 78.0706C2.99174 77.4806 2.62174 76.9006 2.61174 76.3106C2.60174 75.7206 2.69174 75.1306 2.68174 74.5406C2.67174 73.9506 2.72174 73.3606 2.72174 72.7706C2.72174 72.1806 2.83174 71.5906 2.84174 71.0106C2.85174 70.4306 2.95174 69.8306 2.97174 69.2506C2.99174 68.6706 3.19174 68.0806 3.21174 67.4906C3.23174 66.9006 2.68174 66.2906 2.71174 65.7006C2.74174 65.1106 2.80174 64.5206 2.83174 63.9406C2.86174 63.3606 2.81174 62.7506 2.85174 62.1706C2.89174 61.5906 3.57174 61.0406 3.62174 60.4606C3.67174 59.8806 3.72174 59.2906 3.77174 58.7106C3.82174 58.1306 3.93174 57.5406 4.00174 56.9606C4.07174 56.3806 3.41174 55.7106 3.48174 55.1206C3.55174 54.5306 3.48174 53.9206 3.56174 53.3406C3.64174 52.7606 4.53174 52.2806 4.61174 51.7006C4.69174 51.1206 3.95174 50.4006 4.04174 49.8206C4.13174 49.2406 5.12174 48.8006 5.22174 48.2206C5.32174 47.6406 5.44174 47.0606 5.55174 46.4906C5.66174 45.9206 5.83174 45.3506 5.95174 44.7706C6.07174 44.1906 6.17174 43.6206 6.29174 43.0406C6.41174 42.4606 6.26174 41.8306 6.39174 41.2606C6.52174 40.6906 6.79174 40.1406 6.93174 39.5806C7.07174 39.0206 6.91174 38.3606 7.06174 37.7906C7.21174 37.2206 7.79174 36.7706 7.94174 36.2106C8.09174 35.6506 7.70174 34.9106 7.86174 34.3506C8.02174 33.7906 8.81174 33.4106 8.99174 32.8606C9.17174 32.3106 8.57174 31.4806 8.75174 30.9306C8.93174 30.3806 9.91174 30.0906 10.1117 29.5406C10.3117 28.9906 9.62174 28.1006 9.83174 27.5506C10.0417 27.0006 11.1417 26.8006 11.3617 26.2606C11.5817 25.7206 11.4317 25.0106 11.6617 24.4806C11.8917 23.9506 12.1817 23.4206 12.4217 22.8906C12.6617 22.3606 12.5317 21.6306 12.7917 21.1106C13.0517 20.5906 13.9517 20.3806 14.2317 19.8706C14.5117 19.3606 14.7617 18.8206 15.0517 18.3206C15.3417 17.8206 15.2217 17.0506 15.5317 16.5606C15.8417 16.0706 16.6217 15.8606 16.9417 15.3806C17.2617 14.9006 17.0517 14.0206 17.3917 13.5506C17.7317 13.0806 18.3217 12.7606 18.6817 12.3106C19.0417 11.8606 19.0317 11.0506 19.4117 10.6106C19.7917 10.1706 20.5217 9.9906 20.9217 9.5706C21.3217 9.1506 22.0617 9.0506 22.4817 8.6506C22.9017 8.2506 23.3217 7.8506 23.7717 7.4806C24.2217 7.1106 24.2817 6.1906 24.7517 5.8606C25.2217 5.5306 26.1917 5.9206 26.6917 5.6206C27.1917 5.3206 27.6317 4.9506 28.1517 4.7006C28.6717 4.4506 28.9317 3.4906 29.4817 3.3006C30.0317 3.1106 30.7017 3.1506 31.2617 3.0106C31.8217 2.8706 32.4317 2.7506 33.0117 2.6806C33.5917 2.6106 34.2017 2.3606 34.7917 2.3606C35.3817 2.3606 35.9917 2.6006 36.5817 2.6606C37.1717 2.7206 37.6317 3.4206 38.2017 3.5606C38.7717 3.7006 39.5717 3.0806 40.1317 3.2806C40.6917 3.4806 40.9917 4.3006 41.5217 4.5506C42.0517 4.8006 42.4017 5.3106 42.9217 5.6106C43.4417 5.9106 44.0417 5.9706 44.5317 6.3206C45.0217 6.6706 45.6617 6.7506 46.1217 7.1306C46.5817 7.5106 46.6317 8.3006 47.0717 8.7106C47.5117 9.1206 48.3817 9.0406 48.7917 9.4706C49.2017 9.9006 49.3617 10.5306 49.7517 10.9806C50.1417 11.4306 50.3717 11.9706 50.7417 12.4406C51.1117 12.9106 51.7017 13.1706 52.0517 13.6606C52.4017 14.1506 52.4517 14.7906 52.7817 15.2906C53.1117 15.7906 53.4217 16.2606 53.7317 16.7606C54.0417 17.2606 54.8517 17.4506 55.1517 17.9706C55.4517 18.4906 55.5017 19.1206 55.7817 19.6406C56.0617 20.1606 56.0317 20.8206 56.3017 21.3506C56.5717 21.8806 57.1717 22.2306 57.4217 22.7706C57.6717 23.3106 57.8417 23.8706 58.0817 24.4106C58.3217 24.9506 58.5917 25.4706 58.8217 26.0206C59.0517 26.5706 59.2917 27.1006 59.5117 27.6506C59.7317 28.2006 60.1617 28.6606 60.3617 29.2206C60.5617 29.7806 60.7617 30.3306 60.9617 30.8906C61.1617 31.4506 61.2017 32.0506 61.3817 32.6206C61.5617 33.1906 61.1917 33.9106 61.3617 34.4706C61.5317 35.0306 62.3017 35.4206 62.4617 35.9906C62.6217 36.5606 62.1817 37.2806 62.3317 37.8606C62.4817 38.4406 62.8817 38.9306 63.0317 39.5006C63.1817 40.0706 63.2817 40.6506 63.4217 41.2206C63.5617 41.7906 63.7417 42.3506 63.8617 42.9306C63.9817 43.5106 63.7917 44.1406 63.9117 44.7206C64.0317 45.3006 64.0817 45.8806 64.1917 46.4606C64.3017 47.0406 64.8617 47.5306 64.9617 48.1106C65.0617 48.6906 65.2617 49.2506 65.3617 49.8306C65.4617 50.4106 65.3617 51.0206 65.4517 51.6006C65.5417 52.1806 65.9417 52.7206 66.0217 53.3106C66.1017 53.9006 65.7817 54.5306 65.8517 55.1106C65.9217 55.6906 66.1617 56.2606 66.2217 56.8506C66.2817 57.4406 66.6117 58.0006 66.6717 58.5906C66.7317 59.1806 66.2617 59.8106 66.3017 60.4006C66.3417 60.9906 66.5017 61.5606 66.5417 62.1506C66.5817 62.7406 66.3417 63.3406 66.3717 63.9306C66.4017 64.5206 66.8617 65.0806 66.8917 65.6706C66.9217 66.2606 66.7917 66.8506 66.8117 67.4506C66.8317 68.0506 66.4017 68.6406 66.4217 69.2306C66.4417 69.8206 66.8917 70.4006 66.9017 70.9906C66.9117 71.5806 66.3617 72.1706 66.3617 72.7606L66.3217 72.7806Z" stroke="black" stroke-width="4" stroke-miterlimit="10"/>
<path d="M120.752 72.7806C120.752 73.3706 121.262 73.9606 121.252 74.5406C121.242 75.1206 120.902 75.7106 120.892 76.3006C120.882 76.8906 121.422 77.4906 121.402 78.0806C121.382 78.6706 120.992 79.2406 120.962 79.8306C120.932 80.4206 121.492 81.0406 121.462 81.6306C121.432 82.2206 121.362 82.8106 121.312 83.3906C121.262 83.9706 120.342 84.5006 120.302 85.0806C120.262 85.6606 120.462 86.2706 120.412 86.8606C120.362 87.4506 120.052 88.0106 119.992 88.5906C119.932 89.1706 120.492 89.8306 120.422 90.4206C120.352 91.0106 119.632 91.5106 119.552 92.0906C119.472 92.6706 120.322 93.3906 120.232 93.9706C120.142 94.5506 120.002 95.1406 119.912 95.7206C119.822 96.3006 119.032 96.7706 118.932 97.3506C118.832 97.9306 118.972 98.5506 118.862 99.1306C118.752 99.7106 119.012 100.361 118.892 100.941C118.772 101.521 118.192 102.001 118.072 102.571C117.952 103.141 117.872 103.731 117.742 104.301C117.612 104.871 117.122 105.361 116.982 105.931C116.842 106.501 117.382 107.251 117.232 107.821C117.082 108.391 117.092 109.011 116.932 109.571C116.772 110.131 116.002 110.531 115.832 111.091C115.662 111.651 115.542 112.231 115.362 112.791C115.182 113.351 115.132 113.951 114.942 114.511C114.752 115.071 114.292 115.531 114.092 116.081C113.892 116.631 114.372 117.451 114.162 117.991C113.952 118.531 113.162 118.871 112.942 119.411C112.722 119.951 112.972 120.711 112.742 121.241C112.512 121.771 111.672 122.061 111.432 122.591C111.192 123.121 110.902 123.641 110.642 124.161C110.382 124.681 110.072 125.191 109.802 125.701C109.532 126.211 109.102 126.651 108.812 127.161C108.522 127.671 108.692 128.461 108.392 128.951C108.092 129.441 107.712 129.921 107.382 130.401C107.052 130.881 106.812 131.451 106.472 131.921C106.132 132.391 105.932 133.011 105.582 133.461C105.232 133.911 104.822 134.391 104.452 134.831C104.082 135.271 103.442 135.531 103.052 135.951C102.662 136.371 102.182 136.761 101.762 137.151C101.342 137.541 100.632 137.641 100.182 138.001C99.7318 138.361 99.3418 138.811 98.8718 139.141C98.4018 139.471 97.8918 139.751 97.3918 140.051C96.8918 140.351 96.5318 140.931 96.0118 141.171C95.4918 141.411 94.8918 141.521 94.3418 141.711C93.7918 141.901 93.3018 142.361 92.7418 142.501C92.1818 142.641 91.5018 142.141 90.9218 142.211C90.3418 142.281 89.8118 143.141 89.2218 143.141C88.6318 143.141 87.9818 143.221 87.4018 143.141C86.8218 143.061 86.3118 142.431 85.7318 142.291C85.1518 142.151 84.5018 142.281 83.9418 142.081C83.3818 141.881 83.0218 141.251 82.4818 140.991C81.9418 140.731 81.2918 140.751 80.7818 140.441C80.2718 140.131 79.7618 139.851 79.2718 139.501C78.7818 139.151 78.4118 138.691 77.9518 138.311C77.4918 137.931 77.1718 137.431 76.7418 137.031C76.3118 136.631 76.0018 136.141 75.5918 135.701C75.1818 135.261 74.7318 134.921 74.3418 134.471C73.9518 134.021 73.4118 133.731 73.0418 133.261C72.6718 132.791 72.6918 132.071 72.3518 131.591C72.0118 131.111 71.5618 130.731 71.2318 130.241C70.9018 129.751 70.8218 129.131 70.5118 128.631C70.2018 128.131 69.6318 127.801 69.3418 127.291C69.0518 126.781 68.9118 126.201 68.6318 125.681C68.3518 125.161 68.2018 124.601 67.9318 124.071C67.6618 123.541 67.3318 123.071 67.0818 122.531C66.8318 121.991 66.6718 121.441 66.4318 120.901C66.1918 120.361 65.5718 120.001 65.3418 119.451C65.1118 118.901 64.7618 118.421 64.5518 117.861C64.3418 117.301 64.5018 116.631 64.3018 116.071C64.1018 115.511 63.6318 115.061 63.4418 114.501C63.2518 113.941 63.0418 113.401 62.8618 112.831C62.6818 112.261 62.5518 111.701 62.3818 111.131C62.2118 110.561 62.4518 109.891 62.2918 109.321C62.1318 108.751 61.9718 108.201 61.8218 107.631C61.6718 107.061 61.5218 106.501 61.3818 105.931C61.2418 105.361 60.8218 104.861 60.6918 104.281C60.5618 103.701 60.6918 103.081 60.5718 102.501C60.4518 101.921 60.4718 101.331 60.3618 100.751C60.2518 100.171 60.1118 99.6106 60.0118 99.0306C59.9118 98.4506 59.4218 97.9506 59.3218 97.3606C59.2218 96.7706 59.3218 96.1706 59.2318 95.5906C59.1418 95.0106 58.3018 94.5406 58.2118 93.9606C58.1218 93.3806 58.3918 92.7506 58.3118 92.1606C58.2318 91.5706 57.9118 91.0206 57.8518 90.4406C57.7918 89.8606 57.8218 89.2606 57.7618 88.6706C57.7018 88.0806 58.0418 87.4606 57.9818 86.8706C57.9218 86.2806 57.2718 85.7506 57.2218 85.1606C57.1718 84.5706 57.9318 83.9306 57.8918 83.3406C57.8518 82.7506 57.1518 82.2106 57.1218 81.6206C57.0918 81.0306 57.3718 80.4306 57.3518 79.8406C57.3318 79.2506 57.4618 78.6606 57.4418 78.0706C57.4218 77.4806 57.0518 76.9006 57.0418 76.3106C57.0318 75.7206 57.1218 75.1306 57.1118 74.5406C57.1018 73.9506 57.1518 73.3606 57.1518 72.7706C57.1518 72.1806 57.2618 71.5906 57.2718 71.0106C57.2818 70.4306 57.3818 69.8306 57.4018 69.2506C57.4218 68.6706 57.6218 68.0806 57.6418 67.4906C57.6618 66.9006 57.1118 66.2906 57.1418 65.7006C57.1718 65.1106 57.2318 64.5206 57.2618 63.9406C57.2918 63.3606 57.2418 62.7506 57.2818 62.1706C57.3218 61.5906 58.0018 61.0406 58.0518 60.4606C58.1018 59.8806 58.1518 59.2906 58.2018 58.7106C58.2518 58.1306 58.3618 57.5406 58.4318 56.9606C58.5018 56.3806 57.8418 55.7106 57.9118 55.1206C57.9818 54.5306 57.9118 53.9206 57.9918 53.3406C58.0718 52.7606 58.9618 52.2806 59.0418 51.7006C59.1218 51.1206 58.3818 50.4006 58.4718 49.8206C58.5618 49.2406 59.5518 48.8006 59.6518 48.2206C59.7518 47.6406 59.8718 47.0606 59.9818 46.4906C60.0918 45.9206 60.2618 45.3506 60.3818 44.7706C60.5018 44.1906 60.6018 43.6206 60.7218 43.0406C60.8418 42.4606 60.6918 41.8306 60.8218 41.2606C60.9518 40.6906 61.2218 40.1406 61.3618 39.5806C61.5018 39.0206 61.3418 38.3606 61.4918 37.7906C61.6418 37.2206 62.2218 36.7706 62.3718 36.2106C62.5218 35.6506 62.1318 34.9106 62.2918 34.3506C62.4518 33.7906 63.2418 33.4106 63.4218 32.8606C63.6018 32.3106 63.0018 31.4806 63.1818 30.9306C63.3618 30.3806 64.3418 30.0906 64.5418 29.5406C64.7418 28.9906 64.0518 28.1006 64.2618 27.5506C64.4718 27.0006 65.5718 26.8006 65.7918 26.2606C66.0118 25.7206 65.8618 25.0106 66.0918 24.4806C66.3218 23.9506 66.6118 23.4206 66.8518 22.8906C67.0918 22.3606 66.9618 21.6306 67.2218 21.1106C67.4818 20.5906 68.3818 20.3806 68.6618 19.8706C68.9418 19.3606 69.1918 18.8206 69.4818 18.3206C69.7718 17.8206 69.6518 17.0506 69.9618 16.5606C70.2718 16.0706 71.0518 15.8606 71.3718 15.3806C71.6918 14.9006 71.4818 14.0206 71.8218 13.5506C72.1618 13.0806 72.7518 12.7606 73.1118 12.3106C73.4718 11.8606 73.4618 11.0506 73.8418 10.6106C74.2218 10.1706 74.9518 9.9906 75.3518 9.5706C75.7518 9.1506 76.4918 9.0506 76.9118 8.6506C77.3318 8.2506 77.7518 7.8506 78.2018 7.4806C78.6518 7.1106 78.7118 6.1906 79.1818 5.8606C79.6518 5.5306 80.6218 5.9206 81.1218 5.6206C81.6218 5.3206 82.0618 4.9506 82.5818 4.7006C83.1018 4.4506 83.3618 3.4906 83.9118 3.3006C84.4618 3.1106 85.1318 3.1506 85.6918 3.0106C86.2518 2.8706 86.8618 2.7506 87.4418 2.6806C88.0218 2.6106 88.6318 2.3606 89.2218 2.3606C89.8118 2.3606 90.4218 2.6006 91.0118 2.6606C91.6018 2.7206 92.0618 3.4206 92.6318 3.5606C93.2018 3.7006 94.0018 3.0806 94.5618 3.2806C95.1218 3.4806 95.4218 4.3006 95.9518 4.5506C96.4818 4.8006 96.8318 5.3106 97.3518 5.6106C97.8718 5.9106 98.4718 5.9706 98.9618 6.3206C99.4518 6.6706 100.092 6.7506 100.552 7.1306C101.012 7.5106 101.062 8.3006 101.502 8.7106C101.942 9.1206 102.812 9.0406 103.222 9.4706C103.632 9.9006 103.792 10.5306 104.182 10.9806C104.572 11.4306 104.802 11.9706 105.172 12.4406C105.542 12.9106 106.132 13.1706 106.482 13.6606C106.832 14.1506 106.882 14.7906 107.212 15.2906C107.542 15.7906 107.852 16.2606 108.162 16.7606C108.472 17.2606 109.282 17.4506 109.582 17.9706C109.882 18.4906 109.932 19.1206 110.212 19.6406C110.492 20.1606 110.462 20.8206 110.732 21.3506C111.002 21.8806 111.602 22.2306 111.852 22.7706C112.102 23.3106 112.272 23.8706 112.512 24.4106C112.752 24.9506 113.022 25.4706 113.252 26.0206C113.482 26.5706 113.722 27.1006 113.942 27.6506C114.162 28.2006 114.592 28.6606 114.792 29.2206C114.992 29.7806 115.192 30.3306 115.392 30.8906C115.592 31.4506 115.632 32.0506 115.812 32.6206C115.992 33.1906 115.622 33.9106 115.792 34.4706C115.962 35.0306 116.732 35.4206 116.892 35.9906C117.052 36.5606 116.612 37.2806 116.762 37.8606C116.912 38.4406 117.312 38.9306 117.462 39.5006C117.612 40.0706 117.712 40.6506 117.852 41.2206C117.992 41.7906 118.172 42.3506 118.292 42.9306C118.412 43.5106 118.222 44.1406 118.342 44.7206C118.462 45.3006 118.512 45.8806 118.622 46.4606C118.732 47.0406 119.292 47.5306 119.392 48.1106C119.492 48.6906 119.692 49.2506 119.792 49.8306C119.892 50.4106 119.792 51.0206 119.882 51.6006C119.972 52.1806 120.372 52.7206 120.452 53.3106C120.532 53.9006 120.212 54.5306 120.282 55.1106C120.352 55.6906 120.592 56.2606 120.652 56.8506C120.712 57.4406 121.042 58.0006 121.102 58.5906C121.162 59.1806 120.692 59.8106 120.732 60.4006C120.772 60.9906 120.932 61.5606 120.972 62.1506C121.012 62.7406 120.772 63.3406 120.802 63.9306C120.832 64.5206 121.292 65.0806 121.322 65.6706C121.352 66.2606 121.222 66.8506 121.242 67.4506C121.262 68.0506 120.832 68.6406 120.852 69.2306C120.872 69.8206 121.322 70.4006 121.332 70.9906C121.342 71.5806 120.792 72.1706 120.792 72.7606L120.752 72.7806Z" fill="white"/>
<path d="M120.752 72.7806C120.752 73.3706 121.262 73.9606 121.252 74.5406C121.242 75.1206 120.902 75.7106 120.892 76.3006C120.882 76.8906 121.422 77.4906 121.402 78.0806C121.382 78.6706 120.992 79.2406 120.962 79.8306C120.932 80.4206 121.492 81.0406 121.462 81.6306C121.432 82.2206 121.362 82.8106 121.312 83.3906C121.262 83.9706 120.342 84.5006 120.302 85.0806C120.262 85.6606 120.462 86.2706 120.412 86.8606C120.362 87.4506 120.052 88.0106 119.992 88.5906C119.932 89.1706 120.492 89.8306 120.422 90.4206C120.352 91.0106 119.632 91.5106 119.552 92.0906C119.472 92.6706 120.322 93.3906 120.232 93.9706C120.142 94.5506 120.002 95.1406 119.912 95.7206C119.822 96.3006 119.032 96.7706 118.932 97.3506C118.832 97.9306 118.972 98.5506 118.862 99.1306C118.752 99.7106 119.012 100.361 118.892 100.941C118.772 101.521 118.192 102.001 118.072 102.571C117.952 103.141 117.872 103.731 117.742 104.301C117.612 104.871 117.122 105.361 116.982 105.931C116.842 106.501 117.382 107.251 117.232 107.821C117.082 108.391 117.092 109.011 116.932 109.571C116.772 110.131 116.002 110.531 115.832 111.091C115.662 111.651 115.542 112.231 115.362 112.791C115.182 113.351 115.132 113.951 114.942 114.511C114.752 115.071 114.292 115.531 114.092 116.081C113.892 116.631 114.372 117.451 114.162 117.991C113.952 118.531 113.162 118.871 112.942 119.411C112.722 119.951 112.972 120.711 112.742 121.241C112.512 121.771 111.672 122.061 111.432 122.591C111.192 123.121 110.902 123.641 110.642 124.161C110.382 124.681 110.072 125.191 109.802 125.701C109.532 126.211 109.102 126.651 108.812 127.161C108.522 127.671 108.692 128.461 108.392 128.951C108.092 129.441 107.712 129.921 107.382 130.401C107.052 130.881 106.812 131.451 106.472 131.921C106.132 132.391 105.932 133.011 105.582 133.461C105.232 133.911 104.822 134.391 104.452 134.831C104.082 135.271 103.442 135.531 103.052 135.951C102.662 136.371 102.182 136.761 101.762 137.151C101.342 137.541 100.632 137.641 100.182 138.001C99.7318 138.361 99.3418 138.811 98.8718 139.141C98.4018 139.471 97.8918 139.751 97.3918 140.051C96.8918 140.351 96.5318 140.931 96.0118 141.171C95.4918 141.411 94.8918 141.521 94.3418 141.711C93.7918 141.901 93.3018 142.361 92.7418 142.501C92.1818 142.641 91.5018 142.141 90.9218 142.211C90.3418 142.281 89.8118 143.141 89.2218 143.141C88.6318 143.141 87.9818 143.221 87.4018 143.141C86.8218 143.061 86.3118 142.431 85.7318 142.291C85.1518 142.151 84.5018 142.281 83.9418 142.081C83.3818 141.881 83.0218 141.251 82.4818 140.991C81.9418 140.731 81.2918 140.751 80.7818 140.441C80.2718 140.131 79.7618 139.851 79.2718 139.501C78.7818 139.151 78.4118 138.691 77.9518 138.311C77.4918 137.931 77.1718 137.431 76.7418 137.031C76.3118 136.631 76.0018 136.141 75.5918 135.701C75.1818 135.261 74.7318 134.921 74.3418 134.471C73.9518 134.021 73.4118 133.731 73.0418 133.261C72.6718 132.791 72.6918 132.071 72.3518 131.591C72.0118 131.111 71.5618 130.731 71.2318 130.241C70.9018 129.751 70.8218 129.131 70.5118 128.631C70.2018 128.131 69.6318 127.801 69.3418 127.291C69.0518 126.781 68.9118 126.201 68.6318 125.681C68.3518 125.161 68.2018 124.601 67.9318 124.071C67.6618 123.541 67.3318 123.071 67.0818 122.531C66.8318 121.991 66.6718 121.441 66.4318 120.901C66.1918 120.361 65.5718 120.001 65.3418 119.451C65.1118 118.901 64.7618 118.421 64.5518 117.861C64.3418 117.301 64.5018 116.631 64.3018 116.071C64.1018 115.511 63.6318 115.061 63.4418 114.501C63.2518 113.941 63.0418 113.401 62.8618 112.831C62.6818 112.261 62.5518 111.701 62.3818 111.131C62.2118 110.561 62.4518 109.891 62.2918 109.321C62.1318 108.751 61.9718 108.201 61.8218 107.631C61.6718 107.061 61.5218 106.501 61.3818 105.931C61.2418 105.361 60.8218 104.861 60.6918 104.281C60.5618 103.701 60.6918 103.081 60.5718 102.501C60.4518 101.921 60.4718 101.331 60.3618 100.751C60.2518 100.171 60.1118 99.6106 60.0118 99.0306C59.9118 98.4506 59.4218 97.9506 59.3218 97.3606C59.2218 96.7706 59.3218 96.1706 59.2318 95.5906C59.1418 95.0106 58.3018 94.5406 58.2118 93.9606C58.1218 93.3806 58.3918 92.7506 58.3118 92.1606C58.2318 91.5706 57.9118 91.0206 57.8518 90.4406C57.7918 89.8606 57.8218 89.2606 57.7618 88.6706C57.7018 88.0806 58.0418 87.4606 57.9818 86.8706C57.9218 86.2806 57.2718 85.7506 57.2218 85.1606C57.1718 84.5706 57.9318 83.9306 57.8918 83.3406C57.8518 82.7506 57.1518 82.2106 57.1218 81.6206C57.0918 81.0306 57.3718 80.4306 57.3518 79.8406C57.3318 79.2506 57.4618 78.6606 57.4418 78.0706C57.4218 77.4806 57.0518 76.9006 57.0418 76.3106C57.0318 75.7206 57.1218 75.1306 57.1118 74.5406C57.1018 73.9506 57.1518 73.3606 57.1518 72.7706C57.1518 72.1806 57.2618 71.5906 57.2718 71.0106C57.2818 70.4306 57.3818 69.8306 57.4018 69.2506C57.4218 68.6706 57.6218 68.0806 57.6418 67.4906C57.6618 66.9006 57.1118 66.2906 57.1418 65.7006C57.1718 65.1106 57.2318 64.5206 57.2618 63.9406C57.2918 63.3606 57.2418 62.7506 57.2818 62.1706C57.3218 61.5906 58.0018 61.0406 58.0518 60.4606C58.1018 59.8806 58.1518 59.2906 58.2018 58.7106C58.2518 58.1306 58.3618 57.5406 58.4318 56.9606C58.5018 56.3806 57.8418 55.7106 57.9118 55.1206C57.9818 54.5306 57.9118 53.9206 57.9918 53.3406C58.0718 52.7606 58.9618 52.2806 59.0418 51.7006C59.1218 51.1206 58.3818 50.4006 58.4718 49.8206C58.5618 49.2406 59.5518 48.8006 59.6518 48.2206C59.7518 47.6406 59.8718 47.0606 59.9818 46.4906C60.0918 45.9206 60.2618 45.3506 60.3818 44.7706C60.5018 44.1906 60.6018 43.6206 60.7218 43.0406C60.8418 42.4606 60.6918 41.8306 60.8218 41.2606C60.9518 40.6906 61.2218 40.1406 61.3618 39.5806C61.5018 39.0206 61.3418 38.3606 61.4918 37.7906C61.6418 37.2206 62.2218 36.7706 62.3718 36.2106C62.5218 35.6506 62.1318 34.9106 62.2918 34.3506C62.4518 33.7906 63.2418 33.4106 63.4218 32.8606C63.6018 32.3106 63.0018 31.4806 63.1818 30.9306C63.3618 30.3806 64.3418 30.0906 64.5418 29.5406C64.7418 28.9906 64.0518 28.1006 64.2618 27.5506C64.4718 27.0006 65.5718 26.8006 65.7918 26.2606C66.0118 25.7206 65.8618 25.0106 66.0918 24.4806C66.3218 23.9506 66.6118 23.4206 66.8518 22.8906C67.0918 22.3606 66.9618 21.6306 67.2218 21.1106C67.4818 20.5906 68.3818 20.3806 68.6618 19.8706C68.9418 19.3606 69.1918 18.8206 69.4818 18.3206C69.7718 17.8206 69.6518 17.0506 69.9618 16.5606C70.2718 16.0706 71.0518 15.8606 71.3718 15.3806C71.6918 14.9006 71.4818 14.0206 71.8218 13.5506C72.1618 13.0806 72.7518 12.7606 73.1118 12.3106C73.4718 11.8606 73.4618 11.0506 73.8418 10.6106C74.2218 10.1706 74.9518 9.9906 75.3518 9.5706C75.7518 9.1506 76.4918 9.0506 76.9118 8.6506C77.3318 8.2506 77.7518 7.8506 78.2018 7.4806C78.6518 7.1106 78.7118 6.1906 79.1818 5.8606C79.6518 5.5306 80.6218 5.9206 81.1218 5.6206C81.6218 5.3206 82.0618 4.9506 82.5818 4.7006C83.1018 4.4506 83.3618 3.4906 83.9118 3.3006C84.4618 3.1106 85.1318 3.1506 85.6918 3.0106C86.2518 2.8706 86.8618 2.7506 87.4418 2.6806C88.0218 2.6106 88.6318 2.3606 89.2218 2.3606C89.8118 2.3606 90.4218 2.6006 91.0118 2.6606C91.6018 2.7206 92.0618 3.4206 92.6318 3.5606C93.2018 3.7006 94.0018 3.0806 94.5618 3.2806C95.1218 3.4806 95.4218 4.3006 95.9518 4.5506C96.4818 4.8006 96.8318 5.3106 97.3518 5.6106C97.8718 5.9106 98.4718 5.9706 98.9618 6.3206C99.4518 6.6706 100.092 6.7506 100.552 7.1306C101.012 7.5106 101.062 8.3006 101.502 8.7106C101.942 9.1206 102.812 9.0406 103.222 9.4706C103.632 9.9006 103.792 10.5306 104.182 10.9806C104.572 11.4306 104.802 11.9706 105.172 12.4406C105.542 12.9106 106.132 13.1706 106.482 13.6606C106.832 14.1506 106.882 14.7906 107.212 15.2906C107.542 15.7906 107.852 16.2606 108.162 16.7606C108.472 17.2606 109.282 17.4506 109.582 17.9706C109.882 18.4906 109.932 19.1206 110.212 19.6406C110.492 20.1606 110.462 20.8206 110.732 21.3506C111.002 21.8806 111.602 22.2306 111.852 22.7706C112.102 23.3106 112.272 23.8706 112.512 24.4106C112.752 24.9506 113.022 25.4706 113.252 26.0206C113.482 26.5706 113.722 27.1006 113.942 27.6506C114.162 28.2006 114.592 28.6606 114.792 29.2206C114.992 29.7806 115.192 30.3306 115.392 30.8906C115.592 31.4506 115.632 32.0506 115.812 32.6206C115.992 33.1906 115.622 33.9106 115.792 34.4706C115.962 35.0306 116.732 35.4206 116.892 35.9906C117.052 36.5606 116.612 37.2806 116.762 37.8606C116.912 38.4406 117.312 38.9306 117.462 39.5006C117.612 40.0706 117.712 40.6506 117.852 41.2206C117.992 41.7906 118.172 42.3506 118.292 42.9306C118.412 43.5106 118.222 44.1406 118.342 44.7206C118.462 45.3006 118.512 45.8806 118.622 46.4606C118.732 47.0406 119.292 47.5306 119.392 48.1106C119.492 48.6906 119.692 49.2506 119.792 49.8306C119.892 50.4106 119.792 51.0206 119.882 51.6006C119.972 52.1806 120.372 52.7206 120.452 53.3106C120.532 53.9006 120.212 54.5306 120.282 55.1106C120.352 55.6906 120.592 56.2606 120.652 56.8506C120.712 57.4406 121.042 58.0006 121.102 58.5906C121.162 59.1806 120.692 59.8106 120.732 60.4006C120.772 60.9906 120.932 61.5606 120.972 62.1506C121.012 62.7406 120.772 63.3406 120.802 63.9306C120.832 64.5206 121.292 65.0806 121.322 65.6706C121.352 66.2606 121.222 66.8506 121.242 67.4506C121.262 68.0506 120.832 68.6406 120.852 69.2306C120.872 69.8206 121.322 70.4006 121.332 70.9906C121.342 71.5806 120.792 72.1706 120.792 72.7606L120.752 72.7806Z" stroke="black" stroke-width="4" stroke-miterlimit="10"/>
<path d="M24.9718 78.1307C24.3018 77.9007 23.5118 77.5407 23.2818 77.0007C23.0318 76.4207 23.3818 75.5807 23.6318 75.0107C23.8618 74.4707 24.4418 74.3407 25.1118 74.1107C25.9618 73.8207 25.9218 73.7307 26.7718 73.4407C27.6218 73.1507 27.4318 72.6207 28.2718 72.3307C29.1118 72.0407 29.0718 71.9107 29.9118 71.6207C30.7518 71.3307 31.0618 72.2307 31.9118 71.9407C32.7618 71.6507 32.5918 71.1907 33.4418 70.9007C34.2918 70.6107 34.3218 70.7207 35.1718 70.4307C36.0218 70.1407 35.8318 69.6007 36.6818 69.3107C37.5318 69.0207 37.6118 69.2607 38.4518 68.9707C39.2918 68.6807 39.5218 69.3307 40.3718 69.0407C41.2218 68.7507 41.0118 68.1307 41.8618 67.8407C42.7118 67.5507 42.9718 68.0607 43.7018 67.5407C43.6418 66.9507 43.6118 66.2307 43.5418 65.6507C43.4718 65.0707 43.6718 64.4407 43.5818 63.8707C43.4918 63.3007 43.1718 62.7407 43.0718 62.1707C42.9718 61.6007 42.3018 61.1207 42.1918 60.5507C42.0818 59.9807 42.5518 59.2807 42.4318 58.7107C42.3118 58.1407 41.9018 57.6207 41.7618 57.0607C41.6218 56.5007 41.7318 55.8507 41.5818 55.2907C41.4318 54.7307 41.1518 54.1807 40.9818 53.6307C40.8118 53.0807 40.8518 52.4307 40.6718 51.8807C40.4918 51.3307 39.6218 51.0007 39.4218 50.4507C39.2218 49.9007 39.3118 49.2407 39.0918 48.7107C38.8718 48.1807 38.4618 47.7007 38.2318 47.1707C38.0018 46.6407 38.2218 45.8807 37.9718 45.3607C37.7218 44.8407 36.9718 44.5507 36.7018 44.0407C36.4318 43.5307 36.1318 43.0207 35.8418 42.5307C35.5518 42.0407 35.6218 41.2807 35.3118 40.8007C35.0018 40.3207 34.1718 40.1607 33.8318 39.7007C33.4918 39.2407 33.4818 38.4807 33.1118 38.0507C32.7418 37.6207 32.5118 36.9907 32.1118 36.5807C31.6918 36.1507 31.2318 35.7607 30.8018 35.3907C30.3718 35.0207 29.9618 34.4907 29.4918 34.1707C29.0218 33.8507 28.4818 33.4507 27.9718 33.1907C27.4618 32.9307 26.5618 33.5007 26.0118 33.3107C25.4618 33.1207 25.0518 32.3907 24.4818 32.2907C23.9118 32.1907 23.2918 32.7607 22.7018 32.7607C22.1118 32.7607 21.4618 31.8907 20.8918 31.9907C20.3218 32.0907 19.8718 32.7907 19.3118 32.9807C18.7518 33.1707 18.3418 33.5707 17.8118 33.8407C17.2818 34.1107 16.5618 33.9607 16.0718 34.2907C15.5818 34.6207 15.5118 35.4407 15.0618 35.8207C14.6118 36.2007 13.7318 36.0507 13.3118 36.4707C12.8918 36.8907 12.4118 37.2307 12.0318 37.6807C11.6518 38.1307 11.4318 38.6907 11.0718 39.1707C10.7118 39.6507 10.3018 40.0507 9.97177 40.5407C9.64177 41.0307 9.43177 41.5707 9.12177 42.0807C8.81177 42.5907 9.17177 43.4207 8.89177 43.9407C8.61177 44.4607 8.29177 44.9107 8.04177 45.4407C7.79177 45.9707 7.19177 46.3107 6.95177 46.8507C6.71177 47.3907 6.08177 47.7407 5.86177 48.2907C5.64177 48.8407 6.21177 49.6607 6.01177 50.2107C5.81177 50.7607 4.98177 51.0707 4.80177 51.6307C4.62177 52.1907 4.84177 52.8507 4.67177 53.4107C4.50177 53.9707 3.91177 54.3907 3.76177 54.9607C3.61177 55.5307 4.23177 56.2707 4.09177 56.8407C3.95177 57.4107 2.93177 57.7607 2.81177 58.3307C2.69177 58.9007 3.20177 59.5907 3.08177 60.1707C2.96177 60.7507 2.42177 61.2207 2.32177 61.8007C2.22177 62.3807 2.09177 62.9407 2.00177 63.5207C1.91177 64.1007 1.85177 64.6707 1.77177 65.2507C1.69177 65.8307 2.25177 66.4707 2.18177 67.0507C2.11177 67.6307 1.53177 68.1407 1.48177 68.7307C1.43177 69.3207 1.55177 69.9007 1.51177 70.4807C1.47177 71.0607 1.07177 71.6207 1.03177 72.2007C0.991774 72.7807 1.78177 73.3907 1.76177 73.9807C1.74177 74.5707 1.37177 75.1207 1.36177 75.7107C1.35177 76.3007 1.25177 76.8707 1.25177 77.4507C1.25177 78.0307 1.14177 78.6207 1.15177 79.1907C1.16177 79.7607 1.57177 80.3407 1.59177 80.9207C1.61177 81.5007 0.961774 82.1207 1.00177 82.6907C1.04177 83.2607 1.71177 83.8107 1.76177 84.3907C1.81177 84.9707 2.04177 85.5307 2.09177 86.1007C2.14177 86.6707 1.62177 87.3207 1.68177 87.8907C1.74177 88.4607 1.73177 89.0607 1.80177 89.6307C1.87177 90.2007 2.36177 90.7307 2.44177 91.3007C2.52177 91.8707 2.92177 92.3907 3.02177 92.9607C3.12177 93.5307 2.35177 94.2707 2.46177 94.8307C2.57177 95.3907 3.18177 95.8807 3.30177 96.4407C3.42177 97.0007 3.72177 97.5407 3.85177 98.1007C3.98177 98.6607 3.46177 99.4107 3.61177 99.9607C3.76177 100.511 4.41177 100.951 4.57177 101.501C4.73177 102.051 4.84177 102.641 5.02177 103.191C5.20177 103.741 5.64177 104.211 5.83177 104.751C6.02177 105.291 6.34177 105.801 6.55177 106.331C6.76177 106.861 6.97177 107.411 7.20177 107.931C7.43177 108.451 7.53177 109.051 7.78177 109.571C8.03177 110.091 7.82177 110.871 8.09177 111.371C8.36177 111.871 9.43177 111.951 9.72177 112.441C10.0118 112.931 10.2118 113.491 10.5318 113.961C10.8518 114.431 11.2518 114.861 11.5918 115.311C11.9318 115.761 12.0518 116.421 12.4118 116.861C12.7718 117.301 13.0218 117.891 13.4218 118.291C13.8418 118.711 14.1218 119.291 14.5618 119.651C15.0018 120.011 15.9318 119.761 16.4018 120.081C16.8718 120.401 16.9718 121.421 17.4818 121.671C17.9918 121.921 18.6418 122.041 19.1818 122.221C19.7218 122.401 20.4218 122.031 20.9918 122.121C21.5618 122.211 22.0918 122.831 22.6718 122.831C23.2518 122.831 23.8618 122.671 24.4318 122.571C25.0018 122.471 25.5718 122.271 26.1218 122.091C26.6718 121.911 27.2318 121.711 27.7518 121.451C28.2718 121.191 28.9218 121.121 29.4118 120.791C29.9018 120.461 30.1118 119.791 30.5718 119.411C31.0318 119.031 31.4718 118.691 31.8918 118.281C32.3118 117.871 32.9218 117.661 33.3118 117.211C33.7018 116.761 34.1518 116.381 34.5018 115.911C34.8518 115.441 34.6618 114.611 34.9918 114.121C35.3218 113.631 35.4418 113.061 35.7418 112.561C36.0418 112.061 36.6718 111.781 36.9518 111.261C37.2318 110.741 37.1718 110.091 37.4318 109.571C37.6918 109.051 37.9818 108.571 38.2218 108.041C38.4618 107.511 38.8618 107.071 39.0718 106.521C39.2818 105.971 39.2918 105.381 39.4918 104.831C39.6918 104.281 39.7918 103.731 39.9718 103.171C40.1518 102.611 40.5118 102.141 40.6818 101.581C40.8518 101.021 41.4218 100.591 41.5718 100.031C41.7218 99.4707 41.4918 98.8207 41.6318 98.2507C41.7718 97.6807 42.0418 97.1607 42.1718 96.5907C42.3018 96.0207 42.7318 95.5307 42.8418 94.9507C42.9518 94.3707 42.8218 93.7707 42.9218 93.1907C43.0218 92.6107 43.4418 92.1007 43.5318 91.5307C43.6218 90.9607 43.0218 90.2907 43.0918 89.7107C43.1618 89.1307 43.2318 88.5707 43.3018 87.9907C43.3718 87.4107 43.5618 86.8607 43.6218 86.2807C43.6818 85.7007 43.9818 84.8807 44.0318 84.3007C43.2918 83.7807 43.0118 84.2107 42.1618 83.9107C41.3118 83.6107 41.3218 83.5607 40.4718 83.2607C39.6218 82.9607 39.6818 82.7707 38.8318 82.4707C37.9818 82.1707 37.7318 82.8907 36.8718 82.6007C36.0118 82.3107 36.2918 81.5007 35.4418 81.2007C34.5918 80.9007 34.4818 81.2007 33.6218 80.9107C32.7618 80.6207 32.8418 80.3807 31.9818 80.0907C31.1218 79.8007 31.0718 79.9507 30.2118 79.6607C29.3518 79.3707 29.4218 79.1507 28.5718 78.8607C27.7218 78.5707 27.4318 79.4207 26.5618 79.1507C25.6918 78.8807 25.8318 78.4507 24.9718 78.1507V78.1307Z" fill="black"/>
<path d="M79.7718 76.9505C79.1018 76.7205 78.3118 76.3605 78.0818 75.8205C77.8318 75.2405 78.1818 74.4005 78.4318 73.8305C78.6618 73.2905 79.2418 73.1605 79.9118 72.9305C80.7618 72.6405 80.7218 72.5505 81.5718 72.2605C82.4218 71.9705 82.2318 71.4405 83.0718 71.1505C83.9118 70.8605 83.8718 70.7305 84.7118 70.4405C85.5518 70.1505 85.8618 71.0505 86.7118 70.7605C87.5618 70.4705 87.3918 70.0105 88.2418 69.7205C89.0918 69.4305 89.1218 69.5405 89.9718 69.2505C90.8218 68.9605 90.6318 68.4205 91.4818 68.1305C92.3318 67.8405 92.4118 68.0805 93.2518 67.7905C94.0918 67.5005 94.3218 68.1505 95.1718 67.8605C96.0218 67.5705 95.8118 66.9505 96.6618 66.6605C97.5118 66.3705 97.7718 66.8805 98.5018 66.3605C98.4418 65.7705 98.4118 65.0505 98.3418 64.4705C98.2718 63.8905 98.4718 63.2605 98.3818 62.6905C98.2918 62.1205 97.9718 61.5605 97.8718 60.9905C97.7718 60.4205 97.1018 59.9405 96.9918 59.3705C96.8818 58.8005 97.3518 58.1005 97.2318 57.5305C97.1118 56.9605 96.7018 56.4405 96.5618 55.8805C96.4218 55.3205 96.5318 54.6705 96.3818 54.1105C96.2318 53.5505 95.9518 53.0005 95.7818 52.4505C95.6118 51.9005 95.6518 51.2505 95.4718 50.7005C95.2918 50.1505 94.4218 49.8205 94.2218 49.2705C94.0218 48.7205 94.1118 48.0605 93.8918 47.5305C93.6718 47.0005 93.2618 46.5205 93.0318 45.9905C92.8018 45.4605 93.0218 44.7005 92.7718 44.1805C92.5218 43.6605 91.7718 43.3705 91.5018 42.8605C91.2318 42.3505 90.9318 41.8405 90.6418 41.3505C90.3518 40.8605 90.4218 40.1005 90.1118 39.6205C89.8018 39.1405 88.9718 38.9805 88.6318 38.5205C88.2918 38.0605 88.2818 37.3005 87.9118 36.8705C87.5418 36.4405 87.3118 35.8105 86.9118 35.4005C86.4918 34.9705 86.0318 34.5805 85.6018 34.2105C85.1718 33.8405 84.7618 33.3105 84.2918 32.9905C83.8218 32.6705 83.2818 32.2705 82.7718 32.0105C82.2618 31.7505 81.3618 32.3205 80.8118 32.1305C80.2618 31.9405 79.8518 31.2105 79.2818 31.1105C78.7118 31.0105 78.0918 31.5805 77.5018 31.5805C76.9118 31.5805 76.2618 30.7105 75.6918 30.8105C75.1218 30.9105 74.6718 31.6105 74.1118 31.8005C73.5518 31.9905 73.1418 32.3905 72.6118 32.6605C72.0818 32.9305 71.3618 32.7805 70.8718 33.1105C70.3818 33.4405 70.3118 34.2605 69.8618 34.6405C69.4118 35.0205 68.5318 34.8705 68.1118 35.2905C67.6918 35.7105 67.2118 36.0505 66.8318 36.5005C66.4518 36.9505 66.2318 37.5105 65.8718 37.9905C65.5118 38.4705 65.1018 38.8705 64.7718 39.3605C64.4418 39.8505 64.2318 40.3905 63.9218 40.9005C63.6118 41.4105 63.9718 42.2405 63.6918 42.7605C63.4118 43.2805 63.0918 43.7305 62.8418 44.2605C62.5918 44.7905 61.9918 45.1305 61.7518 45.6705C61.5118 46.2105 60.8818 46.5605 60.6618 47.1105C60.4418 47.6605 61.0118 48.4805 60.8118 49.0305C60.6118 49.5805 59.7818 49.8905 59.6018 50.4505C59.4218 51.0105 59.6418 51.6705 59.4718 52.2305C59.3018 52.7905 58.7118 53.2105 58.5618 53.7805C58.4118 54.3505 59.0318 55.0905 58.8918 55.6605C58.7518 56.2305 57.7318 56.5805 57.6118 57.1505C57.4918 57.7205 58.0018 58.4105 57.8818 58.9905C57.7618 59.5705 57.2218 60.0405 57.1218 60.6205C57.0218 61.2005 56.8918 61.7605 56.8018 62.3405C56.7118 62.9205 56.6518 63.4905 56.5718 64.0705C56.4918 64.6505 57.0518 65.2905 56.9818 65.8705C56.9118 66.4505 56.3318 66.9605 56.2818 67.5505C56.2318 68.1405 56.3518 68.7205 56.3118 69.3005C56.2718 69.8805 55.8718 70.4405 55.8318 71.0205C55.7918 71.6005 56.5818 72.2105 56.5618 72.8005C56.5418 73.3905 56.1718 73.9405 56.1618 74.5305C56.1518 75.1205 56.0518 75.6905 56.0518 76.2705C56.0518 76.8505 55.9418 77.4405 55.9518 78.0105C55.9618 78.5805 56.3718 79.1605 56.3918 79.7405C56.4118 80.3205 55.7618 80.9405 55.8018 81.5105C55.8418 82.0805 56.5118 82.6305 56.5618 83.2105C56.6118 83.7905 56.8418 84.3505 56.8918 84.9205C56.9418 85.4905 56.4218 86.1405 56.4818 86.7105C56.5418 87.2805 56.5318 87.8805 56.6018 88.4505C56.6718 89.0205 57.1618 89.5505 57.2418 90.1205C57.3218 90.6905 57.7218 91.2105 57.8218 91.7805C57.9218 92.3505 57.1518 93.0905 57.2618 93.6505C57.3718 94.2105 57.9818 94.7005 58.1018 95.2605C58.2218 95.8205 58.5218 96.3605 58.6518 96.9205C58.7818 97.4805 58.2618 98.2305 58.4118 98.7805C58.5618 99.3305 59.2118 99.7705 59.3718 100.32C59.5318 100.87 59.6418 101.46 59.8218 102.01C60.0018 102.561 60.4418 103.03 60.6318 103.57C60.8218 104.11 61.1418 104.62 61.3518 105.15C61.5618 105.68 61.7718 106.23 62.0018 106.75C62.2318 107.27 62.3318 107.87 62.5818 108.39C62.8318 108.91 62.6218 109.69 62.8918 110.19C63.1618 110.69 64.2318 110.771 64.5218 111.26C64.8118 111.75 65.0118 112.31 65.3318 112.78C65.6518 113.25 66.0518 113.68 66.3918 114.13C66.7318 114.58 66.8518 115.24 67.2118 115.68C67.5718 116.12 67.8218 116.71 68.2218 117.11C68.6418 117.53 68.9218 118.11 69.3618 118.47C69.8018 118.83 70.7318 118.58 71.2018 118.9C71.6718 119.22 71.7718 120.24 72.2818 120.49C72.7918 120.74 73.4418 120.86 73.9818 121.04C74.5218 121.22 75.2218 120.851 75.7918 120.94C76.3618 121.03 76.8918 121.65 77.4718 121.65C78.0518 121.65 78.6618 121.49 79.2318 121.39C79.8018 121.29 80.3718 121.09 80.9218 120.91C81.4718 120.73 82.0318 120.531 82.5518 120.271C83.0718 120.01 83.7218 119.94 84.2118 119.61C84.7018 119.28 84.9118 118.61 85.3718 118.23C85.8318 117.851 86.2718 117.51 86.6918 117.1C87.1118 116.69 87.7218 116.48 88.1118 116.03C88.5018 115.58 88.9518 115.201 89.3018 114.73C89.6518 114.26 89.4618 113.43 89.7918 112.94C90.1218 112.451 90.2418 111.88 90.5418 111.38C90.8418 110.88 91.4718 110.6 91.7518 110.08C92.0318 109.561 91.9718 108.91 92.2318 108.39C92.4918 107.87 92.7818 107.39 93.0218 106.86C93.2618 106.33 93.6618 105.891 93.8718 105.34C94.0818 104.79 94.0918 104.201 94.2918 103.65C94.4918 103.1 94.5918 102.55 94.7718 101.99C94.9518 101.43 95.3118 100.96 95.4818 100.4C95.6518 99.8405 96.2218 99.4105 96.3718 98.8505C96.5218 98.2905 96.2918 97.6405 96.4318 97.0705C96.5718 96.5005 96.8418 95.9805 96.9718 95.4105C97.1018 94.8405 97.5318 94.3505 97.6418 93.7705C97.7518 93.1905 97.6218 92.5905 97.7218 92.0105C97.8218 91.4305 98.2418 90.9205 98.3318 90.3505C98.4218 89.7805 97.8218 89.1105 97.8918 88.5305C97.9618 87.9505 98.0318 87.3905 98.1018 86.8105C98.1718 86.2305 98.3618 85.6805 98.4218 85.1005C98.4818 84.5205 98.7818 83.7005 98.8318 83.1205C98.0918 82.6005 97.8118 83.0305 96.9618 82.7305C96.1118 82.4305 96.1218 82.3805 95.2718 82.0805C94.4218 81.7805 94.4818 81.5905 93.6318 81.2905C92.7818 80.9905 92.5318 81.7105 91.6718 81.4205C90.8118 81.1305 91.0918 80.3205 90.2418 80.0205C89.3918 79.7205 89.2818 80.0205 88.4218 79.7305C87.5618 79.4405 87.6418 79.2005 86.7818 78.9105C85.9218 78.6205 85.8718 78.7705 85.0118 78.4805C84.1518 78.1905 84.2218 77.9705 83.3718 77.6805C82.5218 77.3905 82.2318 78.2405 81.3618 77.9705C80.4918 77.7005 80.6318 77.2705 79.7718 76.9705V76.9505Z" fill="black"/>
</svg>
